<?xml version="1.0" encoding="UTF-8"?>
<svg id="Layer_1" data-name="Layer 1" xmlns="http://www.w3.org/2000/svg" xmlns:xlink="http://www.w3.org/1999/xlink" viewBox="0 0 1798.951 947.302">
  <defs>
    <style>
      .cls-1 {
        fill: #603913;
      }

      .cls-2 {
        font-family: FreestyleScript-Regular, 'Freestyle Script';
        font-size: 122.913px;
      }

      .cls-2, .cls-3, .cls-4 {
        fill: #fff;
      }

      .cls-5 {
        fill: #008455;
        font-size: 111.718px;
      }

      .cls-5, .cls-4 {
        font-family: Impact, Impact;
      }

      .cls-5, .cls-6 {
        isolation: isolate;
      }

      .cls-7 {
        fill: none;
        stroke: #fff;
        stroke-linejoin: round;
        stroke-width: 2.737px;
      }

      .cls-3, .cls-8, .cls-9, .cls-10, .cls-11, .cls-12, .cls-13 {
        fill-rule: evenodd;
      }

      .cls-8 {
        fill: url(#linear-gradient-3);
      }

      .cls-4 {
        font-size: 238.597px;
      }

      .cls-9 {
        fill: #723904;
      }

      .cls-10 {
        fill: url(#linear-gradient-2);
      }

      .cls-11 {
        fill: url(#linear-gradient-4);
      }

      .cls-12 {
        fill: #008356;
      }

      .cls-13 {
        fill: url(#linear-gradient);
      }
    </style>
    <linearGradient id="linear-gradient" x1="1661.581" y1="911.504" x2="1748.813" y2="799.554" gradientTransform="translate(0 -53.866)" gradientUnits="userSpaceOnUse">
      <stop offset="0" stop-color="#fff" stop-opacity=".337"/>
      <stop offset="1" stop-color="#fff" stop-opacity=".103"/>
    </linearGradient>
    <linearGradient id="linear-gradient-2" x1="1786.637" y1="503.918" x2="1879.394" y2="385.757" gradientTransform="translate(30.503 -123.954) rotate(15.15)" xlink:href="#linear-gradient"/>
    <linearGradient id="linear-gradient-3" x1="1828.85" y1="143.981" x2="1917.662" y2="37.486" gradientTransform="translate(56.46 -179.124) rotate(27.654)" xlink:href="#linear-gradient"/>
    <linearGradient id="linear-gradient-4" x1="1794.27" y1="-172.015" x2="1881.298" y2="-267.43" gradientTransform="translate(113.571 -236.67) rotate(39.366)" xlink:href="#linear-gradient"/>
  </defs>
  <path class="cls-9" d="M1798.951,735.52c.031,116.933-94.738,211.751-211.671,211.782-116.933.031-211.751-94.738-211.782-211.671v-.11c0-116.934,94.793-211.727,211.726-211.727s211.727,94.793,211.727,211.727h0Z"/>
  <g>
    <path class="cls-3" d="M1776.084,735.52c0,104.304-84.556,188.86-188.86,188.86s-188.86-84.556-188.86-188.86,84.556-188.86,188.86-188.86,188.86,84.556,188.86,188.86h0Z"/>
    <path class="cls-12" d="M1776.084,735.52c0,104.251-84.609,188.86-188.86,188.86s-188.86-84.609-188.86-188.86h377.72Z"/>
    <path class="cls-13" d="M1617.713,922.58l133.811-174.78-147.362,174.886"/>
    <path class="cls-10" d="M1524.661,909.448l221.305-166.923-230.666,160.988"/>
    <path class="cls-8" d="M1453.321,867.555l284.381-123.334-292.235,115.514"/>
    <path class="cls-11" d="M1415.247,804.9l321.226-63.128-327.329,53.876"/>
  </g>
  <path class="cls-7" d="M1776.084,735.52c0,104.304-84.556,188.86-188.86,188.86s-188.86-84.556-188.86-188.86,84.556-188.86,188.86-188.86,188.86,84.556,188.86,188.86h0Z"/>
  <path class="cls-3" d="M1591.378,819.466h-13.596l12.881-60.977h16.379l13.199,60.812h-14.391l-1.67-11.154h-10.575l-2.226,11.319h0ZM1595.114,797.322h7.474l-3.498-27.514-3.975,27.514h0ZM1463.597,758.489h7.2c8.415,0,15.189,6.681,15.189,14.979v31.018c0,8.298-6.774,14.979-15.189,14.979h-7.2c-8.415,0-15.189-6.681-15.189-14.979v-31.018c0-8.298,6.774-14.979,15.189-14.979h0ZM1467.197,768.676c2.654,0,4.791,2.206,4.791,4.946v30.71c0,2.74-2.137,4.946-4.791,4.946s-4.791-2.206-4.791-4.946v-30.71c0-2.74,2.137-4.946,4.791-4.946h0ZM1506.646,795.412v24.054h-14.223v-60.977h22.008c8.534,0,15.57,3.662,15.57,16.547s-6.438,12.486-6.438,14.019c0,2.187,6.288-1.742,6.288,15.551,0,13.904,2.096,12.563,2.096,13.674s-.075,1.149-.075,1.149h-16.094v-17.351c0-5.595-3.27-6.664-9.133-6.664h0ZM1506.422,783.768v-14.306c3.089,0,9.357-1.208,9.357,7.028,0,8.126-4.434,7.277-9.357,7.277ZM1559.645,796.746h-4.941v-10.114h19.014v31.808h-10.031v-5.277s-2.695,6.303-12.576,6.303-15.421-6.743-15.421-14.804v-32.834c0-7.769,8.534-13.339,18.864-13.339s18.602,5.717,18.602,13.046-.037,8.355-.037,8.355h-13.773v-6.743c0-2.638-2.994-4.544-4.641-4.544s-5.165,1.173-5.165,5.057v29.243c0,3.518,1.422,6.01,4.865,6.01s5.39-2.932,5.39-5.57,0-7.036-.15-6.596h0ZM1637.196,788.524v30.79h-13.175v-60.826h14.672l10.33,33.658v-33.508h13.025v60.826h-15.121l-9.731-30.941h0ZM1668.935,758.489h13.773v60.977h-13.773v-60.977ZM1713.55,780.183h13.773v-8.941c0-5.277-5.09-12.752-19.912-12.752s-17.517,10.407-17.517,15.098v30.342c0,5.717,2.545,15.537,17.966,15.537s20.211-9.674,20.211-13.192v-10.7h-14.372v8.941c0,2.29-2.228,4.397-4.791,4.397-2.48,0-4.791-1.466-4.791-4.397v-30.928c0-2.785,1.361-4.177,4.791-4.177,2.967,0,4.716,2.638,4.716,4.617s.075,6.303-.075,6.156h0Z"/>
  <g class="cls-6">
    <text class="cls-5" transform="translate(1464.189 709.588)"><tspan x="0" y="0">FIRST</tspan></text>
  </g>
  <g>
    <rect class="cls-1" y="143.827" width="1308.044" height="629.727"/>
    <ellipse class="cls-1" cx="654.022" cy="143.827" rx="654.022" ry="143.827"/>
    <ellipse class="cls-1" cx="654.022" cy="773.554" rx="654.022" ry="143.827"/>
    <text class="cls-4" transform="translate(443.151 408.366)"><tspan x="0" y="0">FREE</tspan><tspan x="-93.901" y="286.316">RANGE</tspan></text>
    <text class="cls-2" transform="translate(339.265 152.377)"><tspan x="0" y="0">100% Field to Hub</tspan></text>
    <text class="cls-2" transform="translate(339.655 840.93)"><tspan x="0" y="0">Autonomous Routines</tspan></text>
  </g>
</svg>