<?xml version="1.0" encoding="UTF-8"?>
<svg id="Layer_1" data-name="Layer 1" xmlns="http://www.w3.org/2000/svg" xmlns:xlink="http://www.w3.org/1999/xlink" viewBox="0 0 1024 1024.067">
  <defs>
    <style>
      .cls-1 {
        fill: #fff;
      }

      .cls-1, .cls-2, .cls-3, .cls-4, .cls-5, .cls-6, .cls-7 {
        fill-rule: evenodd;
      }

      .cls-2 {
        fill: url(#linear-gradient-3);
      }

      .cls-3 {
        fill: #723904;
      }

      .cls-4 {
        fill: url(#linear-gradient-2);
      }

      .cls-8 {
        fill: none;
        stroke: #fff;
        stroke-linejoin: round;
        stroke-width: 6.618px;
      }

      .cls-5 {
        fill: url(#linear-gradient-4);
      }

      .cls-6 {
        fill: #008356;
      }

      .cls-9 {
        fill: #008455;
        font-family: Impact, Impact;
        font-size: 270.14px;
      }

      .cls-7 {
        fill: url(#linear-gradient);
      }
    </style>
    <linearGradient id="linear-gradient" x1="691.834" y1="218.879" x2="902.764" y2="489.581" gradientTransform="translate(0 1026.134) scale(1 -1)" gradientUnits="userSpaceOnUse">
      <stop offset="0" stop-color="#fff" stop-opacity=".337"/>
      <stop offset="1" stop-color="#fff" stop-opacity=".103"/>
    </linearGradient>
    <linearGradient id="linear-gradient-2" x1="755.909" y1="375.868" x2="980.2" y2="661.589" gradientTransform="translate(-228.486 904.183) rotate(15.15) scale(1 -1)" xlink:href="#linear-gradient"/>
    <linearGradient id="linear-gradient-3" x1="811.616" y1="532.617" x2="1026.368" y2="790.127" gradientTransform="translate(-400.045 756.276) rotate(27.654) scale(1 -1)" xlink:href="#linear-gradient"/>
    <linearGradient id="linear-gradient-4" x1="839.529" y1="667.414" x2="1049.968" y2="898.134" gradientTransform="translate(-505.642 574.964) rotate(39.366) scale(1 -1)" xlink:href="#linear-gradient"/>
  </defs>
  <path class="cls-3" d="M1024,511.967c.074,282.751-229.082,512.026-511.833,512.1C229.416,1024.141.141,794.985.067,512.234c0-.089,0-.178,0-.267C.067,229.215,229.282,0,512.033,0s511.967,229.215,511.967,511.967h0Z"/>
  <g>
    <path class="cls-1" d="M968.708,511.967c0,252.214-204.46,456.674-456.674,456.674S55.359,764.181,55.359,511.967,259.819,55.292,512.033,55.292s456.674,204.46,456.674,456.674Z"/>
    <path class="cls-6" d="M968.708,511.967c0,252.084-204.59,456.674-456.674,456.674S55.359,764.051,55.359,511.967h913.348Z"/>
    <path class="cls-7" d="M585.757,964.289l323.563-422.628-356.329,422.884"/>
    <path class="cls-4" d="M360.753,932.536l535.128-403.628-557.763,389.278"/>
    <path class="cls-2" d="M188.249,831.235l687.649-298.229L169.258,812.325"/>
    <path class="cls-5" d="M96.183,679.731l776.743-152.647L81.426,657.36"/>
  </g>
  <path class="cls-8" d="M968.708,511.967c0,252.214-204.46,456.674-456.675,456.674S55.359,764.181,55.359,511.967,259.819,55.292,512.034,55.292s456.675,204.46,456.675,456.674Z"/>
  <path class="cls-1" d="M522.077,714.953h-32.876l31.146-147.446h39.605l31.915,147.047h-34.799l-4.037-26.972h-25.57l-5.383,27.371h0ZM531.113,661.409h18.072l-8.459-66.531-9.613,66.531h0ZM213.097,567.507h17.409c20.348,0,36.729,16.155,36.729,36.221v75.004c0,20.066-16.381,36.221-36.729,36.221h-17.409c-20.348,0-36.729-16.155-36.729-36.221v-75.004c0-20.066,16.381-36.221,36.729-36.221ZM221.801,592.141c6.418,0,11.584,5.334,11.584,11.96v74.259c0,6.626-5.167,11.96-11.584,11.96s-11.584-5.334-11.584-11.96v-74.259c0-6.626,5.167-11.96,11.584-11.96ZM317.192,656.79v58.164h-34.391v-147.446h53.216c20.635,0,37.65,8.856,37.65,40.011s-15.567,30.193-15.567,33.898c0,5.288,15.205-4.213,15.205,37.602,0,33.62,5.068,30.378,5.068,33.064s-.181,2.779-.181,2.779h-38.917v-41.956c0-13.528-7.907-16.115-22.083-16.115h0ZM316.649,628.634v-34.592c7.469,0,22.626-2.921,22.626,16.995,0,19.649-10.722,17.597-22.626,17.597ZM445.345,660.015h-11.947v-24.456h45.976v76.913h-24.255v-12.76s-6.516,15.241-30.409,15.241-37.288-16.304-37.288-35.798v-79.394c0-18.785,20.635-32.254,45.614-32.254s44.98,13.823,44.98,31.545-.09,20.203-.09,20.203h-33.305v-16.304c0-6.38-7.24-10.988-11.222-10.988s-12.489,2.836-12.489,12.228v70.71c0,8.507,3.439,14.532,11.765,14.532s13.033-7.089,13.033-13.469,0-17.013-.362-15.95h0ZM632.869,640.135v74.453h-31.857v-147.081h35.477l24.979,81.388v-81.023h31.495v147.081h-36.564l-23.531-74.818h0ZM709.616,567.507h33.305v147.446h-33.305v-147.446ZM817.497,619.964h33.305v-21.621c0-12.76-12.309-30.836-48.148-30.836s-42.356,25.165-42.356,36.507v73.369c0,13.823,6.154,37.57,43.442,37.57s48.872-23.393,48.872-31.899v-25.874h-34.753v21.621c0,5.537-5.388,10.633-11.584,10.633-5.998,0-11.584-3.544-11.584-10.633v-74.786c0-6.734,3.292-10.101,11.584-10.101,7.175,0,11.404,6.38,11.404,11.165s.181,15.241-.181,14.886h0Z"/>
  <text class="cls-9" transform="translate(214.525 449.261)"><tspan x="0" y="0">FIRST</tspan></text>
</svg>